<mxfile host="app.diagrams.net" modified="2023-10-05T20:59:24.951Z" agent="Mozilla/5.0 (Windows NT 10.0; Win64; x64) AppleWebKit/537.36 (KHTML, like Gecko) Chrome/117.0.0.0 Safari/537.36" etag="GOQIFziJbBdQe4aWqPLG" version="22.0.3" type="github">
  <diagram name="Page-1" id="90a13364-a465-7bf4-72fc-28e22215d7a0">
    <mxGraphModel dx="1366" dy="714" grid="1" gridSize="10" guides="1" tooltips="1" connect="1" arrows="1" fold="1" page="1" pageScale="1.5" pageWidth="1169" pageHeight="826" background="none" math="0" shadow="0">
      <root>
        <mxCell id="0" style=";html=1;" />
        <mxCell id="1" style=";html=1;" parent="0" />
        <mxCell id="pfjkunFXqHvG4dDpBAbw-18" value="" style="edgeStyle=orthogonalEdgeStyle;rounded=0;orthogonalLoop=1;jettySize=auto;html=1;" edge="1" parent="1" source="3a17f1ce550125da-1" target="3a17f1ce550125da-8">
          <mxGeometry relative="1" as="geometry">
            <mxPoint x="659.9999999999998" y="379.9999999999999" as="targetPoint" />
          </mxGeometry>
        </mxCell>
        <mxCell id="3a17f1ce550125da-1" value="&quot;DAR&quot; Outsource" style="whiteSpace=wrap;html=1;shadow=1;fontSize=20;fillColor=#f5f5f5;strokeColor=#666666;strokeWidth=2;dashed=1;" parent="1" vertex="1">
          <mxGeometry x="856.5" y="350" width="150" height="60" as="geometry" />
        </mxCell>
        <mxCell id="3a17f1ce550125da-14" style="edgeStyle=elbowEdgeStyle;rounded=0;html=1;startArrow=none;startFill=0;jettySize=auto;orthogonalLoop=1;fontSize=18;elbow=vertical;" parent="1" source="3a17f1ce550125da-2" target="3a17f1ce550125da-5" edge="1">
          <mxGeometry relative="1" as="geometry" />
        </mxCell>
        <mxCell id="3a17f1ce550125da-2" value="Project Core Team&lt;br&gt;Saibossyn Izim&lt;br&gt;Tolegenov Kuat" style="whiteSpace=wrap;html=1;shadow=1;fontSize=18;fillColor=#f5f5f5;strokeColor=#666666;" parent="1" vertex="1">
          <mxGeometry x="820" y="490" width="223" height="190" as="geometry" />
        </mxCell>
        <mxCell id="pfjkunFXqHvG4dDpBAbw-22" value="" style="edgeStyle=orthogonalEdgeStyle;rounded=0;orthogonalLoop=1;jettySize=auto;html=1;" edge="1" parent="1" source="3a17f1ce550125da-5" target="3a17f1ce550125da-9">
          <mxGeometry relative="1" as="geometry" />
        </mxCell>
        <mxCell id="3a17f1ce550125da-5" value="Project Manager&lt;br&gt;Tolegenov Kuat" style="whiteSpace=wrap;html=1;shadow=1;fontSize=18;fillColor=#f5f5f5;strokeColor=#666666;" parent="1" vertex="1">
          <mxGeometry x="1130" y="542" width="150" height="86" as="geometry" />
        </mxCell>
        <mxCell id="3a17f1ce550125da-20" style="edgeStyle=elbowEdgeStyle;rounded=0;html=1;startArrow=none;startFill=0;jettySize=auto;orthogonalLoop=1;fontSize=18;elbow=vertical;" parent="1" source="3a17f1ce550125da-8" target="3a17f1ce550125da-2" edge="1">
          <mxGeometry relative="1" as="geometry">
            <Array as="points">
              <mxPoint x="757" y="514" />
            </Array>
          </mxGeometry>
        </mxCell>
        <mxCell id="3a17f1ce550125da-8" value="Project Leader&lt;br&gt;Saibossyn Izim" style="whiteSpace=wrap;html=1;shadow=1;fontSize=18;fillColor=#f5f5f5;strokeColor=#666666;" parent="1" vertex="1">
          <mxGeometry x="597" y="444" width="120" height="150" as="geometry" />
        </mxCell>
        <mxCell id="pfjkunFXqHvG4dDpBAbw-25" style="edgeStyle=orthogonalEdgeStyle;rounded=0;orthogonalLoop=1;jettySize=auto;html=1;exitX=0.5;exitY=1;exitDx=0;exitDy=0;" edge="1" parent="1" source="3a17f1ce550125da-9" target="pfjkunFXqHvG4dDpBAbw-4">
          <mxGeometry relative="1" as="geometry">
            <mxPoint x="1521.48" y="774" as="sourcePoint" />
            <mxPoint x="1340" y="864" as="targetPoint" />
          </mxGeometry>
        </mxCell>
        <mxCell id="3a17f1ce550125da-9" value="DataBase manager&lt;br&gt;Tolegenov Kuat" style="whiteSpace=wrap;html=1;shadow=1;fontSize=18;fillColor=#f5f5f5;strokeColor=#666666;" parent="1" vertex="1">
          <mxGeometry x="1390" y="650" width="201.5" height="100" as="geometry" />
        </mxCell>
        <mxCell id="3a17f1ce550125da-10" value="Mobile/Desktop&lt;br&gt;application" style="whiteSpace=wrap;html=1;shadow=1;fontSize=18;fillColor=#f5f5f5;strokeColor=#666666;" parent="1" vertex="1">
          <mxGeometry x="859" y="750" width="145" height="120" as="geometry" />
        </mxCell>
        <mxCell id="3a17f1ce550125da-18" style="edgeStyle=elbowEdgeStyle;rounded=0;html=1;startArrow=none;startFill=0;jettySize=auto;orthogonalLoop=1;fontSize=18;elbow=vertical;" parent="1" source="3a17f1ce550125da-11" target="3a17f1ce550125da-10" edge="1">
          <mxGeometry relative="1" as="geometry" />
        </mxCell>
        <mxCell id="3a17f1ce550125da-11" value="Front-end Dev&lt;br&gt;Saibossyn Izim" style="whiteSpace=wrap;html=1;shadow=1;fontSize=18;fillColor=#f5f5f5;strokeColor=#666666;" parent="1" vertex="1">
          <mxGeometry x="560" y="790" width="157" height="74" as="geometry" />
        </mxCell>
        <mxCell id="3a17f1ce550125da-22" style="edgeStyle=elbowEdgeStyle;rounded=0;html=1;startArrow=none;startFill=0;jettySize=auto;orthogonalLoop=1;fontSize=18;" parent="1" source="3a17f1ce550125da-10" target="3a17f1ce550125da-2" edge="1">
          <mxGeometry relative="1" as="geometry">
            <mxPoint x="937" y="784" as="sourcePoint" />
            <mxPoint x="937" y="744" as="targetPoint" />
            <Array as="points">
              <mxPoint x="927" y="754" />
              <mxPoint x="907" y="754" />
            </Array>
          </mxGeometry>
        </mxCell>
        <mxCell id="pfjkunFXqHvG4dDpBAbw-2" style="edgeStyle=elbowEdgeStyle;rounded=0;html=1;startArrow=none;startFill=0;jettySize=auto;orthogonalLoop=1;fontSize=18;elbow=horizontal;exitX=0.406;exitY=1.014;exitDx=0;exitDy=0;exitPerimeter=0;" edge="1" parent="1" source="3a17f1ce550125da-1" target="3a17f1ce550125da-2">
          <mxGeometry relative="1" as="geometry">
            <Array as="points">
              <mxPoint x="932" y="450" />
              <mxPoint x="920" y="470" />
              <mxPoint x="899" y="444" />
            </Array>
            <mxPoint x="859" y="444" as="sourcePoint" />
            <mxPoint x="962" y="444" as="targetPoint" />
          </mxGeometry>
        </mxCell>
        <mxCell id="pfjkunFXqHvG4dDpBAbw-3" value="Designer&lt;br&gt;Bekbolat Sanzhar" style="whiteSpace=wrap;html=1;shadow=1;fontSize=18;fillColor=#f5f5f5;strokeColor=#666666;" vertex="1" parent="1">
          <mxGeometry x="420" y="690" width="157" height="74" as="geometry" />
        </mxCell>
        <mxCell id="pfjkunFXqHvG4dDpBAbw-4" value="Back-end Dev&lt;br&gt;Tolegenov Kuat" style="whiteSpace=wrap;html=1;shadow=1;fontSize=18;fillColor=#f5f5f5;strokeColor=#666666;" vertex="1" parent="1">
          <mxGeometry x="1130" y="790" width="157" height="74" as="geometry" />
        </mxCell>
        <mxCell id="pfjkunFXqHvG4dDpBAbw-10" style="edgeStyle=elbowEdgeStyle;rounded=0;html=1;startArrow=none;startFill=0;jettySize=auto;orthogonalLoop=1;fontSize=18;elbow=vertical;entryX=0.994;entryY=0.537;entryDx=0;entryDy=0;entryPerimeter=0;" edge="1" parent="1">
          <mxGeometry relative="1" as="geometry">
            <mxPoint x="1130" y="826.7585714285714" as="sourcePoint" />
            <mxPoint x="1003.1300000000001" y="826.7700000000001" as="targetPoint" />
          </mxGeometry>
        </mxCell>
        <mxCell id="pfjkunFXqHvG4dDpBAbw-11" value="" style="endArrow=classic;html=1;rounded=0;" edge="1" parent="1" source="pfjkunFXqHvG4dDpBAbw-3" target="3a17f1ce550125da-11">
          <mxGeometry width="50" height="50" relative="1" as="geometry">
            <mxPoint x="810" y="700" as="sourcePoint" />
            <mxPoint x="860" y="650" as="targetPoint" />
            <Array as="points">
              <mxPoint x="499" y="830" />
              <mxPoint x="570" y="830" />
            </Array>
          </mxGeometry>
        </mxCell>
      </root>
    </mxGraphModel>
  </diagram>
</mxfile>
